# xmcd
#
# Track frame offsets: 
#        150
#        12692
#        31052
#        47962
#        67697
#        88107
#        104280
#        118317
#        137292
#        160575
#        178067
#        189215
#        201950
#
# Disc length: 2863 seconds
#
# Revision: 4
# Processed by: cddbd v1.5.2PL0 Copyright (c) Steve Scherf et al.
# Submitted via: ExactAudioCopy v0.99pb5
#
DISCID=a80b2d0d
DTITLE=The Blue Rider Trio - harp,steel and guts
DYEAR=2000
DGENRE=Blues
TTITLE0=Salty Dog
TTITLE1=Easy Rider
TTITLE2=Last Fair Deal Going Down
TTITLE3=Death Have No Mercy In This Land
TTITLE4=Ride Till I Die
TTITLE5=Make Me Down A Pallet
TTITLE6=Black Betty
TTITLE7=Stagolee
TTITLE8=Sweet Home Kokomo
TTITLE9=Silver City Bound
TTITLE10=Long Tall Momma
TTITLE11=C C Rider
TTITLE12=Diddy Wa Diddy
EXTD=YEAR: 2000
EXTT0=
EXTT1=
EXTT2=
EXTT3=
EXTT4=
EXTT5=
EXTT6=
EXTT7=
EXTT8=
EXTT9=
EXTT10=
EXTT11=
EXTT12=
PLAYORDER=
